<svg xmlns="http://www.w3.org/2000/svg" xmlns:xlink="http://www.w3.org/1999/xlink"><defs><clipPath id="clip0"><path fill="#fff" transform="translate(0 .118)" d="M0 0h24v19.765H0z"/></clipPath><clipPath id="clip0"><path fill="#fff" transform="translate(0 .158)" d="M0 0h24v17.684H0z"/></clipPath></defs><symbol id="facebook" viewBox="0 0 24 24"><path d="M23.04 0H.96A.959.959 0 000 .96v22.08c0 .531.429.96.96.96h22.08c.531 0 .96-.429.96-.96V.96a.959.959 0 00-.96-.96zm-2.772 7.005h-1.917c-1.503 0-1.794.714-1.794 1.764v2.313h3.588l-.468 3.621h-3.12V24h-3.741v-9.294H9.687v-3.624h3.129v-2.67c0-3.099 1.893-4.788 4.659-4.788 1.326 0 2.463.099 2.796.144v3.237h-.003z" fill="#335BF5"/></symbol><symbol id="instagram" viewBox="0 0 24 24"><path d="M12.002 5.847A6.144 6.144 0 005.849 12a6.144 6.144 0 006.153 6.153A6.144 6.144 0 0018.155 12a6.144 6.144 0 00-6.153-6.153zm0 10.152a4.007 4.007 0 01-4-3.999 4.007 4.007 0 014-3.999 4.007 4.007 0 013.999 4 4.007 4.007 0 01-4 3.998zm6.405-11.838c-.795 0-1.437.642-1.437 1.437s.642 1.437 1.437 1.437a1.433 1.433 0 001.328-1.987 1.436 1.436 0 00-1.328-.887zm5.589 7.84c0-1.657.015-3.298-.078-4.95-.093-1.92-.531-3.625-1.935-5.029C20.576.615 18.875.18 16.955.087 15.299-.006 13.658.01 12.005.01c-1.656 0-3.297-.015-4.95.078C5.135.18 3.43.618 2.027 2.022.62 3.43.185 5.13.092 7.05-.001 8.706.014 10.347.014 12s-.015 3.297.078 4.95c.093 1.92.53 3.624 1.935 5.028 1.407 1.407 3.108 1.842 5.028 1.935 1.656.093 3.297.078 4.95.078 1.656 0 3.297.015 4.95-.078 1.92-.093 3.624-.53 5.028-1.935 1.407-1.407 1.842-3.108 1.935-5.028.096-1.653.078-3.294.078-4.95zm-2.64 7.073a3.812 3.812 0 01-.906 1.374 3.838 3.838 0 01-1.374.906c-1.578.627-5.325.486-7.074.486-1.75 0-5.5.141-7.077-.483a3.812 3.812 0 01-1.374-.906 3.838 3.838 0 01-.906-1.374c-.624-1.58-.483-5.328-.483-7.077 0-1.749-.141-5.499.483-7.077.219-.546.483-.954.906-1.374.423-.42.828-.687 1.374-.906 1.578-.624 5.328-.483 7.077-.483 1.749 0 5.499-.14 7.077.483.546.22.954.483 1.374.906.423.423.687.828.906 1.374.624 1.578.483 5.328.483 7.077 0 1.75.14 5.496-.486 7.074z" fill="#E61F5A"/></symbol><symbol id="twitter" viewBox="0 0 24 20"><g clip-path="url(#clip0)"><path d="M24 2.465a9.74 9.74 0 01-2.829.772A4.96 4.96 0 0023.332.49a9.613 9.613 0 01-3.117 1.205A4.902 4.902 0 0018.58.526a4.84 4.84 0 00-1.956-.408c-2.723 0-4.913 2.24-4.913 4.988 0 .386.046.772.121 1.143a13.896 13.896 0 01-10.13-5.22 5.007 5.007 0 00-.668 2.518c0 1.731.867 3.257 2.19 4.155a4.901 4.901 0 01-2.222-.635v.062c0 2.424 1.688 4.432 3.939 4.894a5.133 5.133 0 01-1.294.17c-.32 0-.622-.032-.928-.076a4.931 4.931 0 004.593 3.459 9.756 9.756 0 01-6.1 2.131c-.412 0-.792-.015-1.187-.061a13.765 13.765 0 007.546 2.236c9.035 0 13.98-7.596 13.98-14.189 0-.216 0-.432-.015-.649.957-.71 1.795-1.59 2.463-2.579z" fill="#21A6DF"/></g></symbol><symbol id="youtube" viewBox="0 0 24 18"><g clip-path="url(#clip0)"><path d="M23.47 2.932a3.192 3.192 0 00-.775-1.41 2.966 2.966 0 00-1.34-.814C19.488.177 11.988.177 11.988.177s-7.5 0-9.367.53a2.966 2.966 0 00-1.34.815c-.372.39-.639.877-.775 1.41A34.16 34.16 0 000 9a34.161 34.161 0 00.505 6.068c.136.533.403 1.02.775 1.41.37.39.833.67 1.34.814 1.866.531 9.367.531 9.367.531s7.5 0 9.367-.531a2.966 2.966 0 001.34-.815c.371-.39.639-.876.775-1.409.348-2.002.518-4.033.505-6.068a34.163 34.163 0 00-.505-6.068zm-13.88 9.85V5.218l6.225 3.78-6.225 3.782z" fill="#E42F08"/></g></symbol></svg>